<mxfile host="app.diagrams.net" modified="2024-04-30T02:21:34.340Z" agent="Mozilla/5.0 (Windows NT 10.0; Win64; x64; rv:125.0) Gecko/20100101 Firefox/125.0" etag="dXUSWQNRq3KtZLmP1IPP" version="24.3.1" type="device">
  <diagram id="R2lEEEUBdFMjLlhIrx00" name="Page-1">
    <mxGraphModel dx="2537" dy="887" grid="1" gridSize="10" guides="1" tooltips="1" connect="1" arrows="1" fold="1" page="1" pageScale="1" pageWidth="850" pageHeight="1100" math="0" shadow="0" extFonts="Permanent Marker^https://fonts.googleapis.com/css?family=Permanent+Marker">
      <root>
        <mxCell id="0" />
        <mxCell id="1" parent="0" />
        <mxCell id="bWG8DcwmnRC3jpYhOKxS-1" value="Products" style="shape=table;startSize=30;container=1;collapsible=1;childLayout=tableLayout;fixedRows=1;rowLines=0;fontStyle=1;align=center;resizeLast=1;html=1;" vertex="1" parent="1">
          <mxGeometry x="-258" y="120" width="268" height="720" as="geometry" />
        </mxCell>
        <mxCell id="bWG8DcwmnRC3jpYhOKxS-2" value="" style="shape=tableRow;horizontal=0;startSize=0;swimlaneHead=0;swimlaneBody=0;fillColor=none;collapsible=0;dropTarget=0;points=[[0,0.5],[1,0.5]];portConstraint=eastwest;top=0;left=0;right=0;bottom=1;" vertex="1" parent="bWG8DcwmnRC3jpYhOKxS-1">
          <mxGeometry y="30" width="268" height="30" as="geometry" />
        </mxCell>
        <mxCell id="bWG8DcwmnRC3jpYhOKxS-3" value="PK" style="shape=partialRectangle;connectable=0;fillColor=none;top=0;left=0;bottom=0;right=0;fontStyle=1;overflow=hidden;whiteSpace=wrap;html=1;" vertex="1" parent="bWG8DcwmnRC3jpYhOKxS-2">
          <mxGeometry width="30" height="30" as="geometry">
            <mxRectangle width="30" height="30" as="alternateBounds" />
          </mxGeometry>
        </mxCell>
        <mxCell id="bWG8DcwmnRC3jpYhOKxS-4" value="id int NOT NULL" style="shape=partialRectangle;connectable=0;fillColor=none;top=0;left=0;bottom=0;right=0;align=left;spacingLeft=6;fontStyle=5;overflow=hidden;whiteSpace=wrap;html=1;" vertex="1" parent="bWG8DcwmnRC3jpYhOKxS-2">
          <mxGeometry x="30" width="238" height="30" as="geometry">
            <mxRectangle width="238" height="30" as="alternateBounds" />
          </mxGeometry>
        </mxCell>
        <mxCell id="bWG8DcwmnRC3jpYhOKxS-5" value="" style="shape=tableRow;horizontal=0;startSize=0;swimlaneHead=0;swimlaneBody=0;fillColor=none;collapsible=0;dropTarget=0;points=[[0,0.5],[1,0.5]];portConstraint=eastwest;top=0;left=0;right=0;bottom=0;" vertex="1" parent="bWG8DcwmnRC3jpYhOKxS-1">
          <mxGeometry y="60" width="268" height="30" as="geometry" />
        </mxCell>
        <mxCell id="bWG8DcwmnRC3jpYhOKxS-6" value="" style="shape=partialRectangle;connectable=0;fillColor=none;top=0;left=0;bottom=0;right=0;editable=1;overflow=hidden;whiteSpace=wrap;html=1;" vertex="1" parent="bWG8DcwmnRC3jpYhOKxS-5">
          <mxGeometry width="30" height="30" as="geometry">
            <mxRectangle width="30" height="30" as="alternateBounds" />
          </mxGeometry>
        </mxCell>
        <mxCell id="bWG8DcwmnRC3jpYhOKxS-7" value="name varchar(100) NOT NULL" style="shape=partialRectangle;connectable=0;fillColor=none;top=0;left=0;bottom=0;right=0;align=left;spacingLeft=6;overflow=hidden;whiteSpace=wrap;html=1;" vertex="1" parent="bWG8DcwmnRC3jpYhOKxS-5">
          <mxGeometry x="30" width="238" height="30" as="geometry">
            <mxRectangle width="238" height="30" as="alternateBounds" />
          </mxGeometry>
        </mxCell>
        <mxCell id="bWG8DcwmnRC3jpYhOKxS-8" value="" style="shape=tableRow;horizontal=0;startSize=0;swimlaneHead=0;swimlaneBody=0;fillColor=none;collapsible=0;dropTarget=0;points=[[0,0.5],[1,0.5]];portConstraint=eastwest;top=0;left=0;right=0;bottom=0;" vertex="1" parent="bWG8DcwmnRC3jpYhOKxS-1">
          <mxGeometry y="90" width="268" height="30" as="geometry" />
        </mxCell>
        <mxCell id="bWG8DcwmnRC3jpYhOKxS-9" value="" style="shape=partialRectangle;connectable=0;fillColor=none;top=0;left=0;bottom=0;right=0;editable=1;overflow=hidden;whiteSpace=wrap;html=1;" vertex="1" parent="bWG8DcwmnRC3jpYhOKxS-8">
          <mxGeometry width="30" height="30" as="geometry">
            <mxRectangle width="30" height="30" as="alternateBounds" />
          </mxGeometry>
        </mxCell>
        <mxCell id="bWG8DcwmnRC3jpYhOKxS-10" value="&lt;div&gt;manufacturer varchar(50) NOT NULL&lt;/div&gt;" style="shape=partialRectangle;connectable=0;fillColor=none;top=0;left=0;bottom=0;right=0;align=left;spacingLeft=6;overflow=hidden;whiteSpace=wrap;html=1;" vertex="1" parent="bWG8DcwmnRC3jpYhOKxS-8">
          <mxGeometry x="30" width="238" height="30" as="geometry">
            <mxRectangle width="238" height="30" as="alternateBounds" />
          </mxGeometry>
        </mxCell>
        <mxCell id="bWG8DcwmnRC3jpYhOKxS-11" value="" style="shape=tableRow;horizontal=0;startSize=0;swimlaneHead=0;swimlaneBody=0;fillColor=none;collapsible=0;dropTarget=0;points=[[0,0.5],[1,0.5]];portConstraint=eastwest;top=0;left=0;right=0;bottom=0;" vertex="1" parent="bWG8DcwmnRC3jpYhOKxS-1">
          <mxGeometry y="120" width="268" height="30" as="geometry" />
        </mxCell>
        <mxCell id="bWG8DcwmnRC3jpYhOKxS-12" value="" style="shape=partialRectangle;connectable=0;fillColor=none;top=0;left=0;bottom=0;right=0;editable=1;overflow=hidden;whiteSpace=wrap;html=1;" vertex="1" parent="bWG8DcwmnRC3jpYhOKxS-11">
          <mxGeometry width="30" height="30" as="geometry">
            <mxRectangle width="30" height="30" as="alternateBounds" />
          </mxGeometry>
        </mxCell>
        <mxCell id="bWG8DcwmnRC3jpYhOKxS-13" value="mark varchar(50) NOT NULL" style="shape=partialRectangle;connectable=0;fillColor=none;top=0;left=0;bottom=0;right=0;align=left;spacingLeft=6;overflow=hidden;whiteSpace=wrap;html=1;" vertex="1" parent="bWG8DcwmnRC3jpYhOKxS-11">
          <mxGeometry x="30" width="238" height="30" as="geometry">
            <mxRectangle width="238" height="30" as="alternateBounds" />
          </mxGeometry>
        </mxCell>
        <mxCell id="bWG8DcwmnRC3jpYhOKxS-15" value="" style="shape=tableRow;horizontal=0;startSize=0;swimlaneHead=0;swimlaneBody=0;fillColor=none;collapsible=0;dropTarget=0;points=[[0,0.5],[1,0.5]];portConstraint=eastwest;top=0;left=0;right=0;bottom=0;" vertex="1" parent="bWG8DcwmnRC3jpYhOKxS-1">
          <mxGeometry y="150" width="268" height="30" as="geometry" />
        </mxCell>
        <mxCell id="bWG8DcwmnRC3jpYhOKxS-16" value="" style="shape=partialRectangle;connectable=0;fillColor=none;top=0;left=0;bottom=0;right=0;editable=1;overflow=hidden;" vertex="1" parent="bWG8DcwmnRC3jpYhOKxS-15">
          <mxGeometry width="30" height="30" as="geometry">
            <mxRectangle width="30" height="30" as="alternateBounds" />
          </mxGeometry>
        </mxCell>
        <mxCell id="bWG8DcwmnRC3jpYhOKxS-17" value="sku varchar(50) NOT NULL" style="shape=partialRectangle;connectable=0;fillColor=none;top=0;left=0;bottom=0;right=0;align=left;spacingLeft=6;overflow=hidden;" vertex="1" parent="bWG8DcwmnRC3jpYhOKxS-15">
          <mxGeometry x="30" width="238" height="30" as="geometry">
            <mxRectangle width="238" height="30" as="alternateBounds" />
          </mxGeometry>
        </mxCell>
        <mxCell id="bWG8DcwmnRC3jpYhOKxS-19" value="" style="shape=tableRow;horizontal=0;startSize=0;swimlaneHead=0;swimlaneBody=0;fillColor=none;collapsible=0;dropTarget=0;points=[[0,0.5],[1,0.5]];portConstraint=eastwest;top=0;left=0;right=0;bottom=0;" vertex="1" parent="bWG8DcwmnRC3jpYhOKxS-1">
          <mxGeometry y="180" width="268" height="30" as="geometry" />
        </mxCell>
        <mxCell id="bWG8DcwmnRC3jpYhOKxS-20" value="" style="shape=partialRectangle;connectable=0;fillColor=none;top=0;left=0;bottom=0;right=0;editable=1;overflow=hidden;" vertex="1" parent="bWG8DcwmnRC3jpYhOKxS-19">
          <mxGeometry width="30" height="30" as="geometry">
            <mxRectangle width="30" height="30" as="alternateBounds" />
          </mxGeometry>
        </mxCell>
        <mxCell id="bWG8DcwmnRC3jpYhOKxS-21" value="available tinyint(1) NOT NULL" style="shape=partialRectangle;connectable=0;fillColor=none;top=0;left=0;bottom=0;right=0;align=left;spacingLeft=6;overflow=hidden;" vertex="1" parent="bWG8DcwmnRC3jpYhOKxS-19">
          <mxGeometry x="30" width="238" height="30" as="geometry">
            <mxRectangle width="238" height="30" as="alternateBounds" />
          </mxGeometry>
        </mxCell>
        <mxCell id="bWG8DcwmnRC3jpYhOKxS-22" value="" style="shape=tableRow;horizontal=0;startSize=0;swimlaneHead=0;swimlaneBody=0;fillColor=none;collapsible=0;dropTarget=0;points=[[0,0.5],[1,0.5]];portConstraint=eastwest;top=0;left=0;right=0;bottom=0;" vertex="1" parent="bWG8DcwmnRC3jpYhOKxS-1">
          <mxGeometry y="210" width="268" height="30" as="geometry" />
        </mxCell>
        <mxCell id="bWG8DcwmnRC3jpYhOKxS-23" value="" style="shape=partialRectangle;connectable=0;fillColor=none;top=0;left=0;bottom=0;right=0;editable=1;overflow=hidden;" vertex="1" parent="bWG8DcwmnRC3jpYhOKxS-22">
          <mxGeometry width="30" height="30" as="geometry">
            <mxRectangle width="30" height="30" as="alternateBounds" />
          </mxGeometry>
        </mxCell>
        <mxCell id="bWG8DcwmnRC3jpYhOKxS-24" value="colection varchar(50) NOT NULL" style="shape=partialRectangle;connectable=0;fillColor=none;top=0;left=0;bottom=0;right=0;align=left;spacingLeft=6;overflow=hidden;" vertex="1" parent="bWG8DcwmnRC3jpYhOKxS-22">
          <mxGeometry x="30" width="238" height="30" as="geometry">
            <mxRectangle width="238" height="30" as="alternateBounds" />
          </mxGeometry>
        </mxCell>
        <mxCell id="bWG8DcwmnRC3jpYhOKxS-25" value="" style="shape=tableRow;horizontal=0;startSize=0;swimlaneHead=0;swimlaneBody=0;fillColor=none;collapsible=0;dropTarget=0;points=[[0,0.5],[1,0.5]];portConstraint=eastwest;top=0;left=0;right=0;bottom=0;" vertex="1" parent="bWG8DcwmnRC3jpYhOKxS-1">
          <mxGeometry y="240" width="268" height="30" as="geometry" />
        </mxCell>
        <mxCell id="bWG8DcwmnRC3jpYhOKxS-26" value="" style="shape=partialRectangle;connectable=0;fillColor=none;top=0;left=0;bottom=0;right=0;editable=1;overflow=hidden;" vertex="1" parent="bWG8DcwmnRC3jpYhOKxS-25">
          <mxGeometry width="30" height="30" as="geometry">
            <mxRectangle width="30" height="30" as="alternateBounds" />
          </mxGeometry>
        </mxCell>
        <mxCell id="bWG8DcwmnRC3jpYhOKxS-27" value="price decimal(10,0) NOT NULL" style="shape=partialRectangle;connectable=0;fillColor=none;top=0;left=0;bottom=0;right=0;align=left;spacingLeft=6;overflow=hidden;" vertex="1" parent="bWG8DcwmnRC3jpYhOKxS-25">
          <mxGeometry x="30" width="238" height="30" as="geometry">
            <mxRectangle width="238" height="30" as="alternateBounds" />
          </mxGeometry>
        </mxCell>
        <mxCell id="bWG8DcwmnRC3jpYhOKxS-28" value="" style="shape=tableRow;horizontal=0;startSize=0;swimlaneHead=0;swimlaneBody=0;fillColor=none;collapsible=0;dropTarget=0;points=[[0,0.5],[1,0.5]];portConstraint=eastwest;top=0;left=0;right=0;bottom=0;" vertex="1" parent="bWG8DcwmnRC3jpYhOKxS-1">
          <mxGeometry y="270" width="268" height="30" as="geometry" />
        </mxCell>
        <mxCell id="bWG8DcwmnRC3jpYhOKxS-29" value="" style="shape=partialRectangle;connectable=0;fillColor=none;top=0;left=0;bottom=0;right=0;editable=1;overflow=hidden;" vertex="1" parent="bWG8DcwmnRC3jpYhOKxS-28">
          <mxGeometry width="30" height="30" as="geometry">
            <mxRectangle width="30" height="30" as="alternateBounds" />
          </mxGeometry>
        </mxCell>
        <mxCell id="bWG8DcwmnRC3jpYhOKxS-30" value="line varchar(50) NOT NULL" style="shape=partialRectangle;connectable=0;fillColor=none;top=0;left=0;bottom=0;right=0;align=left;spacingLeft=6;overflow=hidden;" vertex="1" parent="bWG8DcwmnRC3jpYhOKxS-28">
          <mxGeometry x="30" width="238" height="30" as="geometry">
            <mxRectangle width="238" height="30" as="alternateBounds" />
          </mxGeometry>
        </mxCell>
        <mxCell id="bWG8DcwmnRC3jpYhOKxS-31" value="" style="shape=tableRow;horizontal=0;startSize=0;swimlaneHead=0;swimlaneBody=0;fillColor=none;collapsible=0;dropTarget=0;points=[[0,0.5],[1,0.5]];portConstraint=eastwest;top=0;left=0;right=0;bottom=0;" vertex="1" parent="bWG8DcwmnRC3jpYhOKxS-1">
          <mxGeometry y="300" width="268" height="30" as="geometry" />
        </mxCell>
        <mxCell id="bWG8DcwmnRC3jpYhOKxS-32" value="" style="shape=partialRectangle;connectable=0;fillColor=none;top=0;left=0;bottom=0;right=0;editable=1;overflow=hidden;" vertex="1" parent="bWG8DcwmnRC3jpYhOKxS-31">
          <mxGeometry width="30" height="30" as="geometry">
            <mxRectangle width="30" height="30" as="alternateBounds" />
          </mxGeometry>
        </mxCell>
        <mxCell id="bWG8DcwmnRC3jpYhOKxS-33" value="character varchar(50) NOT NULL" style="shape=partialRectangle;connectable=0;fillColor=none;top=0;left=0;bottom=0;right=0;align=left;spacingLeft=6;overflow=hidden;" vertex="1" parent="bWG8DcwmnRC3jpYhOKxS-31">
          <mxGeometry x="30" width="238" height="30" as="geometry">
            <mxRectangle width="238" height="30" as="alternateBounds" />
          </mxGeometry>
        </mxCell>
        <mxCell id="bWG8DcwmnRC3jpYhOKxS-35" value="" style="shape=tableRow;horizontal=0;startSize=0;swimlaneHead=0;swimlaneBody=0;fillColor=none;collapsible=0;dropTarget=0;points=[[0,0.5],[1,0.5]];portConstraint=eastwest;top=0;left=0;right=0;bottom=0;" vertex="1" parent="bWG8DcwmnRC3jpYhOKxS-1">
          <mxGeometry y="330" width="268" height="30" as="geometry" />
        </mxCell>
        <mxCell id="bWG8DcwmnRC3jpYhOKxS-36" value="" style="shape=partialRectangle;connectable=0;fillColor=none;top=0;left=0;bottom=0;right=0;editable=1;overflow=hidden;" vertex="1" parent="bWG8DcwmnRC3jpYhOKxS-35">
          <mxGeometry width="30" height="30" as="geometry">
            <mxRectangle width="30" height="30" as="alternateBounds" />
          </mxGeometry>
        </mxCell>
        <mxCell id="bWG8DcwmnRC3jpYhOKxS-37" value="characterVersion varchar(50) NOT NULL" style="shape=partialRectangle;connectable=0;fillColor=none;top=0;left=0;bottom=0;right=0;align=left;spacingLeft=6;overflow=hidden;" vertex="1" parent="bWG8DcwmnRC3jpYhOKxS-35">
          <mxGeometry x="30" width="238" height="30" as="geometry">
            <mxRectangle width="238" height="30" as="alternateBounds" />
          </mxGeometry>
        </mxCell>
        <mxCell id="bWG8DcwmnRC3jpYhOKxS-38" value="" style="shape=tableRow;horizontal=0;startSize=0;swimlaneHead=0;swimlaneBody=0;fillColor=none;collapsible=0;dropTarget=0;points=[[0,0.5],[1,0.5]];portConstraint=eastwest;top=0;left=0;right=0;bottom=0;" vertex="1" parent="bWG8DcwmnRC3jpYhOKxS-1">
          <mxGeometry y="360" width="268" height="30" as="geometry" />
        </mxCell>
        <mxCell id="bWG8DcwmnRC3jpYhOKxS-39" value="" style="shape=partialRectangle;connectable=0;fillColor=none;top=0;left=0;bottom=0;right=0;editable=1;overflow=hidden;" vertex="1" parent="bWG8DcwmnRC3jpYhOKxS-38">
          <mxGeometry width="30" height="30" as="geometry">
            <mxRectangle width="30" height="30" as="alternateBounds" />
          </mxGeometry>
        </mxCell>
        <mxCell id="bWG8DcwmnRC3jpYhOKxS-40" value="minAge varchar(30) NOT NULL" style="shape=partialRectangle;connectable=0;fillColor=none;top=0;left=0;bottom=0;right=0;align=left;spacingLeft=6;overflow=hidden;" vertex="1" parent="bWG8DcwmnRC3jpYhOKxS-38">
          <mxGeometry x="30" width="238" height="30" as="geometry">
            <mxRectangle width="238" height="30" as="alternateBounds" />
          </mxGeometry>
        </mxCell>
        <mxCell id="bWG8DcwmnRC3jpYhOKxS-41" value="" style="shape=tableRow;horizontal=0;startSize=0;swimlaneHead=0;swimlaneBody=0;fillColor=none;collapsible=0;dropTarget=0;points=[[0,0.5],[1,0.5]];portConstraint=eastwest;top=0;left=0;right=0;bottom=0;" vertex="1" parent="bWG8DcwmnRC3jpYhOKxS-1">
          <mxGeometry y="390" width="268" height="30" as="geometry" />
        </mxCell>
        <mxCell id="bWG8DcwmnRC3jpYhOKxS-42" value="" style="shape=partialRectangle;connectable=0;fillColor=none;top=0;left=0;bottom=0;right=0;editable=1;overflow=hidden;" vertex="1" parent="bWG8DcwmnRC3jpYhOKxS-41">
          <mxGeometry width="30" height="30" as="geometry">
            <mxRectangle width="30" height="30" as="alternateBounds" />
          </mxGeometry>
        </mxCell>
        <mxCell id="bWG8DcwmnRC3jpYhOKxS-43" value="height smallint" style="shape=partialRectangle;connectable=0;fillColor=none;top=0;left=0;bottom=0;right=0;align=left;spacingLeft=6;overflow=hidden;" vertex="1" parent="bWG8DcwmnRC3jpYhOKxS-41">
          <mxGeometry x="30" width="238" height="30" as="geometry">
            <mxRectangle width="238" height="30" as="alternateBounds" />
          </mxGeometry>
        </mxCell>
        <mxCell id="bWG8DcwmnRC3jpYhOKxS-44" value="" style="shape=tableRow;horizontal=0;startSize=0;swimlaneHead=0;swimlaneBody=0;fillColor=none;collapsible=0;dropTarget=0;points=[[0,0.5],[1,0.5]];portConstraint=eastwest;top=0;left=0;right=0;bottom=0;" vertex="1" parent="bWG8DcwmnRC3jpYhOKxS-1">
          <mxGeometry y="420" width="268" height="30" as="geometry" />
        </mxCell>
        <mxCell id="bWG8DcwmnRC3jpYhOKxS-45" value="" style="shape=partialRectangle;connectable=0;fillColor=none;top=0;left=0;bottom=0;right=0;editable=1;overflow=hidden;" vertex="1" parent="bWG8DcwmnRC3jpYhOKxS-44">
          <mxGeometry width="30" height="30" as="geometry">
            <mxRectangle width="30" height="30" as="alternateBounds" />
          </mxGeometry>
        </mxCell>
        <mxCell id="bWG8DcwmnRC3jpYhOKxS-46" value="depth smallint" style="shape=partialRectangle;connectable=0;fillColor=none;top=0;left=0;bottom=0;right=0;align=left;spacingLeft=6;overflow=hidden;" vertex="1" parent="bWG8DcwmnRC3jpYhOKxS-44">
          <mxGeometry x="30" width="238" height="30" as="geometry">
            <mxRectangle width="238" height="30" as="alternateBounds" />
          </mxGeometry>
        </mxCell>
        <mxCell id="bWG8DcwmnRC3jpYhOKxS-47" value="" style="shape=tableRow;horizontal=0;startSize=0;swimlaneHead=0;swimlaneBody=0;fillColor=none;collapsible=0;dropTarget=0;points=[[0,0.5],[1,0.5]];portConstraint=eastwest;top=0;left=0;right=0;bottom=0;" vertex="1" parent="bWG8DcwmnRC3jpYhOKxS-1">
          <mxGeometry y="450" width="268" height="30" as="geometry" />
        </mxCell>
        <mxCell id="bWG8DcwmnRC3jpYhOKxS-48" value="" style="shape=partialRectangle;connectable=0;fillColor=none;top=0;left=0;bottom=0;right=0;editable=1;overflow=hidden;" vertex="1" parent="bWG8DcwmnRC3jpYhOKxS-47">
          <mxGeometry width="30" height="30" as="geometry">
            <mxRectangle width="30" height="30" as="alternateBounds" />
          </mxGeometry>
        </mxCell>
        <mxCell id="bWG8DcwmnRC3jpYhOKxS-49" value="width smallint" style="shape=partialRectangle;connectable=0;fillColor=none;top=0;left=0;bottom=0;right=0;align=left;spacingLeft=6;overflow=hidden;" vertex="1" parent="bWG8DcwmnRC3jpYhOKxS-47">
          <mxGeometry x="30" width="238" height="30" as="geometry">
            <mxRectangle width="238" height="30" as="alternateBounds" />
          </mxGeometry>
        </mxCell>
        <mxCell id="bWG8DcwmnRC3jpYhOKxS-50" value="" style="shape=tableRow;horizontal=0;startSize=0;swimlaneHead=0;swimlaneBody=0;fillColor=none;collapsible=0;dropTarget=0;points=[[0,0.5],[1,0.5]];portConstraint=eastwest;top=0;left=0;right=0;bottom=0;" vertex="1" parent="bWG8DcwmnRC3jpYhOKxS-1">
          <mxGeometry y="480" width="268" height="30" as="geometry" />
        </mxCell>
        <mxCell id="bWG8DcwmnRC3jpYhOKxS-51" value="" style="shape=partialRectangle;connectable=0;fillColor=none;top=0;left=0;bottom=0;right=0;editable=1;overflow=hidden;" vertex="1" parent="bWG8DcwmnRC3jpYhOKxS-50">
          <mxGeometry width="30" height="30" as="geometry">
            <mxRectangle width="30" height="30" as="alternateBounds" />
          </mxGeometry>
        </mxCell>
        <mxCell id="bWG8DcwmnRC3jpYhOKxS-52" value="materials varchar(50) NOT NULL" style="shape=partialRectangle;connectable=0;fillColor=none;top=0;left=0;bottom=0;right=0;align=left;spacingLeft=6;overflow=hidden;" vertex="1" parent="bWG8DcwmnRC3jpYhOKxS-50">
          <mxGeometry x="30" width="238" height="30" as="geometry">
            <mxRectangle width="238" height="30" as="alternateBounds" />
          </mxGeometry>
        </mxCell>
        <mxCell id="bWG8DcwmnRC3jpYhOKxS-53" value="" style="shape=tableRow;horizontal=0;startSize=0;swimlaneHead=0;swimlaneBody=0;fillColor=none;collapsible=0;dropTarget=0;points=[[0,0.5],[1,0.5]];portConstraint=eastwest;top=0;left=0;right=0;bottom=0;" vertex="1" parent="bWG8DcwmnRC3jpYhOKxS-1">
          <mxGeometry y="510" width="268" height="30" as="geometry" />
        </mxCell>
        <mxCell id="bWG8DcwmnRC3jpYhOKxS-54" value="" style="shape=partialRectangle;connectable=0;fillColor=none;top=0;left=0;bottom=0;right=0;editable=1;overflow=hidden;" vertex="1" parent="bWG8DcwmnRC3jpYhOKxS-53">
          <mxGeometry width="30" height="30" as="geometry">
            <mxRectangle width="30" height="30" as="alternateBounds" />
          </mxGeometry>
        </mxCell>
        <mxCell id="bWG8DcwmnRC3jpYhOKxS-55" value="scale varchar(30) NOT NULL" style="shape=partialRectangle;connectable=0;fillColor=none;top=0;left=0;bottom=0;right=0;align=left;spacingLeft=6;overflow=hidden;" vertex="1" parent="bWG8DcwmnRC3jpYhOKxS-53">
          <mxGeometry x="30" width="238" height="30" as="geometry">
            <mxRectangle width="238" height="30" as="alternateBounds" />
          </mxGeometry>
        </mxCell>
        <mxCell id="bWG8DcwmnRC3jpYhOKxS-56" value="" style="shape=tableRow;horizontal=0;startSize=0;swimlaneHead=0;swimlaneBody=0;fillColor=none;collapsible=0;dropTarget=0;points=[[0,0.5],[1,0.5]];portConstraint=eastwest;top=0;left=0;right=0;bottom=0;" vertex="1" parent="bWG8DcwmnRC3jpYhOKxS-1">
          <mxGeometry y="540" width="268" height="30" as="geometry" />
        </mxCell>
        <mxCell id="bWG8DcwmnRC3jpYhOKxS-57" value="" style="shape=partialRectangle;connectable=0;fillColor=none;top=0;left=0;bottom=0;right=0;editable=1;overflow=hidden;" vertex="1" parent="bWG8DcwmnRC3jpYhOKxS-56">
          <mxGeometry width="30" height="30" as="geometry">
            <mxRectangle width="30" height="30" as="alternateBounds" />
          </mxGeometry>
        </mxCell>
        <mxCell id="bWG8DcwmnRC3jpYhOKxS-58" value="articulated tinyint(1)" style="shape=partialRectangle;connectable=0;fillColor=none;top=0;left=0;bottom=0;right=0;align=left;spacingLeft=6;overflow=hidden;" vertex="1" parent="bWG8DcwmnRC3jpYhOKxS-56">
          <mxGeometry x="30" width="238" height="30" as="geometry">
            <mxRectangle width="238" height="30" as="alternateBounds" />
          </mxGeometry>
        </mxCell>
        <mxCell id="bWG8DcwmnRC3jpYhOKxS-59" value="" style="shape=tableRow;horizontal=0;startSize=0;swimlaneHead=0;swimlaneBody=0;fillColor=none;collapsible=0;dropTarget=0;points=[[0,0.5],[1,0.5]];portConstraint=eastwest;top=0;left=0;right=0;bottom=0;" vertex="1" parent="bWG8DcwmnRC3jpYhOKxS-1">
          <mxGeometry y="570" width="268" height="30" as="geometry" />
        </mxCell>
        <mxCell id="bWG8DcwmnRC3jpYhOKxS-60" value="" style="shape=partialRectangle;connectable=0;fillColor=none;top=0;left=0;bottom=0;right=0;editable=1;overflow=hidden;" vertex="1" parent="bWG8DcwmnRC3jpYhOKxS-59">
          <mxGeometry width="30" height="30" as="geometry">
            <mxRectangle width="30" height="30" as="alternateBounds" />
          </mxGeometry>
        </mxCell>
        <mxCell id="bWG8DcwmnRC3jpYhOKxS-61" value="collectable tinyint(1)" style="shape=partialRectangle;connectable=0;fillColor=none;top=0;left=0;bottom=0;right=0;align=left;spacingLeft=6;overflow=hidden;" vertex="1" parent="bWG8DcwmnRC3jpYhOKxS-59">
          <mxGeometry x="30" width="238" height="30" as="geometry">
            <mxRectangle width="238" height="30" as="alternateBounds" />
          </mxGeometry>
        </mxCell>
        <mxCell id="bWG8DcwmnRC3jpYhOKxS-62" value="" style="shape=tableRow;horizontal=0;startSize=0;swimlaneHead=0;swimlaneBody=0;fillColor=none;collapsible=0;dropTarget=0;points=[[0,0.5],[1,0.5]];portConstraint=eastwest;top=0;left=0;right=0;bottom=0;" vertex="1" parent="bWG8DcwmnRC3jpYhOKxS-1">
          <mxGeometry y="600" width="268" height="30" as="geometry" />
        </mxCell>
        <mxCell id="bWG8DcwmnRC3jpYhOKxS-63" value="" style="shape=partialRectangle;connectable=0;fillColor=none;top=0;left=0;bottom=0;right=0;editable=1;overflow=hidden;" vertex="1" parent="bWG8DcwmnRC3jpYhOKxS-62">
          <mxGeometry width="30" height="30" as="geometry">
            <mxRectangle width="30" height="30" as="alternateBounds" />
          </mxGeometry>
        </mxCell>
        <mxCell id="bWG8DcwmnRC3jpYhOKxS-64" value="accessories tinyint(1)" style="shape=partialRectangle;connectable=0;fillColor=none;top=0;left=0;bottom=0;right=0;align=left;spacingLeft=6;overflow=hidden;" vertex="1" parent="bWG8DcwmnRC3jpYhOKxS-62">
          <mxGeometry x="30" width="238" height="30" as="geometry">
            <mxRectangle width="238" height="30" as="alternateBounds" />
          </mxGeometry>
        </mxCell>
        <mxCell id="bWG8DcwmnRC3jpYhOKxS-65" value="" style="shape=tableRow;horizontal=0;startSize=0;swimlaneHead=0;swimlaneBody=0;fillColor=none;collapsible=0;dropTarget=0;points=[[0,0.5],[1,0.5]];portConstraint=eastwest;top=0;left=0;right=0;bottom=0;" vertex="1" parent="bWG8DcwmnRC3jpYhOKxS-1">
          <mxGeometry y="630" width="268" height="30" as="geometry" />
        </mxCell>
        <mxCell id="bWG8DcwmnRC3jpYhOKxS-66" value="" style="shape=partialRectangle;connectable=0;fillColor=none;top=0;left=0;bottom=0;right=0;editable=1;overflow=hidden;" vertex="1" parent="bWG8DcwmnRC3jpYhOKxS-65">
          <mxGeometry width="30" height="30" as="geometry">
            <mxRectangle width="30" height="30" as="alternateBounds" />
          </mxGeometry>
        </mxCell>
        <mxCell id="bWG8DcwmnRC3jpYhOKxS-67" value="bobblehead tinyint(1)" style="shape=partialRectangle;connectable=0;fillColor=none;top=0;left=0;bottom=0;right=0;align=left;spacingLeft=6;overflow=hidden;" vertex="1" parent="bWG8DcwmnRC3jpYhOKxS-65">
          <mxGeometry x="30" width="238" height="30" as="geometry">
            <mxRectangle width="238" height="30" as="alternateBounds" />
          </mxGeometry>
        </mxCell>
        <mxCell id="bWG8DcwmnRC3jpYhOKxS-68" value="" style="shape=tableRow;horizontal=0;startSize=0;swimlaneHead=0;swimlaneBody=0;fillColor=none;collapsible=0;dropTarget=0;points=[[0,0.5],[1,0.5]];portConstraint=eastwest;top=0;left=0;right=0;bottom=0;" vertex="1" parent="bWG8DcwmnRC3jpYhOKxS-1">
          <mxGeometry y="660" width="268" height="30" as="geometry" />
        </mxCell>
        <mxCell id="bWG8DcwmnRC3jpYhOKxS-69" value="" style="shape=partialRectangle;connectable=0;fillColor=none;top=0;left=0;bottom=0;right=0;editable=1;overflow=hidden;" vertex="1" parent="bWG8DcwmnRC3jpYhOKxS-68">
          <mxGeometry width="30" height="30" as="geometry">
            <mxRectangle width="30" height="30" as="alternateBounds" />
          </mxGeometry>
        </mxCell>
        <mxCell id="bWG8DcwmnRC3jpYhOKxS-70" value="firstImg varchar(100) NOT NULL" style="shape=partialRectangle;connectable=0;fillColor=none;top=0;left=0;bottom=0;right=0;align=left;spacingLeft=6;overflow=hidden;" vertex="1" parent="bWG8DcwmnRC3jpYhOKxS-68">
          <mxGeometry x="30" width="238" height="30" as="geometry">
            <mxRectangle width="238" height="30" as="alternateBounds" />
          </mxGeometry>
        </mxCell>
        <mxCell id="bWG8DcwmnRC3jpYhOKxS-71" value="" style="shape=tableRow;horizontal=0;startSize=0;swimlaneHead=0;swimlaneBody=0;fillColor=none;collapsible=0;dropTarget=0;points=[[0,0.5],[1,0.5]];portConstraint=eastwest;top=0;left=0;right=0;bottom=0;" vertex="1" parent="bWG8DcwmnRC3jpYhOKxS-1">
          <mxGeometry y="690" width="268" height="30" as="geometry" />
        </mxCell>
        <mxCell id="bWG8DcwmnRC3jpYhOKxS-72" value="" style="shape=partialRectangle;connectable=0;fillColor=none;top=0;left=0;bottom=0;right=0;editable=1;overflow=hidden;" vertex="1" parent="bWG8DcwmnRC3jpYhOKxS-71">
          <mxGeometry width="30" height="30" as="geometry">
            <mxRectangle width="30" height="30" as="alternateBounds" />
          </mxGeometry>
        </mxCell>
        <mxCell id="bWG8DcwmnRC3jpYhOKxS-73" value="description text" style="shape=partialRectangle;connectable=0;fillColor=none;top=0;left=0;bottom=0;right=0;align=left;spacingLeft=6;overflow=hidden;" vertex="1" parent="bWG8DcwmnRC3jpYhOKxS-71">
          <mxGeometry x="30" width="238" height="30" as="geometry">
            <mxRectangle width="238" height="30" as="alternateBounds" />
          </mxGeometry>
        </mxCell>
        <mxCell id="bWG8DcwmnRC3jpYhOKxS-77" value="imagessecondaries" style="shape=table;startSize=30;container=1;collapsible=1;childLayout=tableLayout;fixedRows=1;rowLines=0;fontStyle=1;align=center;resizeLast=1;html=1;" vertex="1" parent="1">
          <mxGeometry x="70" y="60" width="260" height="120" as="geometry" />
        </mxCell>
        <mxCell id="bWG8DcwmnRC3jpYhOKxS-78" value="" style="shape=tableRow;horizontal=0;startSize=0;swimlaneHead=0;swimlaneBody=0;fillColor=none;collapsible=0;dropTarget=0;points=[[0,0.5],[1,0.5]];portConstraint=eastwest;top=0;left=0;right=0;bottom=1;" vertex="1" parent="bWG8DcwmnRC3jpYhOKxS-77">
          <mxGeometry y="30" width="260" height="30" as="geometry" />
        </mxCell>
        <mxCell id="bWG8DcwmnRC3jpYhOKxS-79" value="PK" style="shape=partialRectangle;connectable=0;fillColor=none;top=0;left=0;bottom=0;right=0;fontStyle=1;overflow=hidden;whiteSpace=wrap;html=1;" vertex="1" parent="bWG8DcwmnRC3jpYhOKxS-78">
          <mxGeometry width="30" height="30" as="geometry">
            <mxRectangle width="30" height="30" as="alternateBounds" />
          </mxGeometry>
        </mxCell>
        <mxCell id="bWG8DcwmnRC3jpYhOKxS-80" value="&lt;div&gt;id int NOT NULL&lt;br&gt;&lt;/div&gt;" style="shape=partialRectangle;connectable=0;fillColor=none;top=0;left=0;bottom=0;right=0;align=left;spacingLeft=6;fontStyle=5;overflow=hidden;whiteSpace=wrap;html=1;" vertex="1" parent="bWG8DcwmnRC3jpYhOKxS-78">
          <mxGeometry x="30" width="230" height="30" as="geometry">
            <mxRectangle width="230" height="30" as="alternateBounds" />
          </mxGeometry>
        </mxCell>
        <mxCell id="bWG8DcwmnRC3jpYhOKxS-81" value="" style="shape=tableRow;horizontal=0;startSize=0;swimlaneHead=0;swimlaneBody=0;fillColor=none;collapsible=0;dropTarget=0;points=[[0,0.5],[1,0.5]];portConstraint=eastwest;top=0;left=0;right=0;bottom=0;" vertex="1" parent="bWG8DcwmnRC3jpYhOKxS-77">
          <mxGeometry y="60" width="260" height="30" as="geometry" />
        </mxCell>
        <mxCell id="bWG8DcwmnRC3jpYhOKxS-82" value="" style="shape=partialRectangle;connectable=0;fillColor=none;top=0;left=0;bottom=0;right=0;editable=1;overflow=hidden;whiteSpace=wrap;html=1;" vertex="1" parent="bWG8DcwmnRC3jpYhOKxS-81">
          <mxGeometry width="30" height="30" as="geometry">
            <mxRectangle width="30" height="30" as="alternateBounds" />
          </mxGeometry>
        </mxCell>
        <mxCell id="bWG8DcwmnRC3jpYhOKxS-83" value="file varchar(100)" style="shape=partialRectangle;connectable=0;fillColor=none;top=0;left=0;bottom=0;right=0;align=left;spacingLeft=6;overflow=hidden;whiteSpace=wrap;html=1;" vertex="1" parent="bWG8DcwmnRC3jpYhOKxS-81">
          <mxGeometry x="30" width="230" height="30" as="geometry">
            <mxRectangle width="230" height="30" as="alternateBounds" />
          </mxGeometry>
        </mxCell>
        <mxCell id="bWG8DcwmnRC3jpYhOKxS-90" value="" style="shape=tableRow;horizontal=0;startSize=0;swimlaneHead=0;swimlaneBody=0;fillColor=none;collapsible=0;dropTarget=0;points=[[0,0.5],[1,0.5]];portConstraint=eastwest;top=0;left=0;right=0;bottom=0;" vertex="1" parent="bWG8DcwmnRC3jpYhOKxS-77">
          <mxGeometry y="90" width="260" height="30" as="geometry" />
        </mxCell>
        <mxCell id="bWG8DcwmnRC3jpYhOKxS-91" value="FK" style="shape=partialRectangle;connectable=0;fillColor=none;top=0;left=0;bottom=0;right=0;fontStyle=0;overflow=hidden;whiteSpace=wrap;html=1;" vertex="1" parent="bWG8DcwmnRC3jpYhOKxS-90">
          <mxGeometry width="30" height="30" as="geometry">
            <mxRectangle width="30" height="30" as="alternateBounds" />
          </mxGeometry>
        </mxCell>
        <mxCell id="bWG8DcwmnRC3jpYhOKxS-92" value="idProduct int NOT NULL" style="shape=partialRectangle;connectable=0;fillColor=none;top=0;left=0;bottom=0;right=0;align=left;spacingLeft=6;fontStyle=0;overflow=hidden;whiteSpace=wrap;html=1;" vertex="1" parent="bWG8DcwmnRC3jpYhOKxS-90">
          <mxGeometry x="30" width="230" height="30" as="geometry">
            <mxRectangle width="230" height="30" as="alternateBounds" />
          </mxGeometry>
        </mxCell>
        <mxCell id="bWG8DcwmnRC3jpYhOKxS-93" value="" style="edgeStyle=entityRelationEdgeStyle;fontSize=12;html=1;endArrow=ERzeroToMany;endFill=1;rounded=0;" edge="1" parent="1" source="bWG8DcwmnRC3jpYhOKxS-2" target="bWG8DcwmnRC3jpYhOKxS-90">
          <mxGeometry width="100" height="100" relative="1" as="geometry">
            <mxPoint x="70" y="440" as="sourcePoint" />
            <mxPoint x="170" y="340" as="targetPoint" />
          </mxGeometry>
        </mxCell>
      </root>
    </mxGraphModel>
  </diagram>
</mxfile>
